<svg xmlns="http://www.w3.org/2000/svg" width="90.876" height="109.728" viewBox="0 0 90.876 109.728">
  <g id="Group_1657" data-name="Group 1657" transform="translate(-1303.844 -1363.881)">
    <path id="Path_620" data-name="Path 620" d="M2064.544,656.667h6.986v64.192h-11.218" transform="translate(-678.311 741.901)" fill="none" stroke="#fff" stroke-linecap="round" stroke-linejoin="round" stroke-width="3"/>
    <path id="Path_621" data-name="Path 621" d="M2000.026,666.015h-24.355a4.674,4.674,0,1,1,0-9.348h17.581" transform="translate(-665.653 741.901)" fill="none" stroke="#fff" stroke-linecap="round" stroke-linejoin="round" stroke-width="3"/>
    <path id="Path_622" data-name="Path 622" d="M1971,662.113v64.192a4.675,4.675,0,0,0,4.674,4.674h71.983V666.787h-2.542" transform="translate(-665.653 741.129)" fill="none" stroke="#fff" stroke-linecap="round" stroke-linejoin="round" stroke-width="3"/>
    <ellipse id="Ellipse_78" data-name="Ellipse 78" cx="14.568" cy="14.568" rx="14.568" ry="14.568" transform="translate(1342.114 1373.638)" fill="none" stroke="#fff" stroke-miterlimit="10" stroke-width="3"/>
    <line id="Line_8" data-name="Line 8" x1="5.297" transform="translate(1382.156 1417.42)" fill="none" stroke="#fff" stroke-linecap="round" stroke-miterlimit="10" stroke-width="3"/>
    <line id="Line_9" data-name="Line 9" x1="5.297" transform="translate(1382.156 1425.522)" fill="none" stroke="#fff" stroke-linecap="round" stroke-miterlimit="10" stroke-width="3"/>
    <line id="Line_10" data-name="Line 10" x1="5.297" transform="translate(1382.156 1433.624)" fill="none" stroke="#fff" stroke-linecap="round" stroke-miterlimit="10" stroke-width="3"/>
    <path id="Path_623" data-name="Path 623" d="M2021.008,647.275h2.466v-6.552h-2.466v-2h7.321v2h-2.466v6.552h2.466v2h-7.321Z" transform="translate(-672.74 744.444)" fill="#fff"/>
    <path id="Path_624" data-name="Path 624" d="M2031.959,644.025c0-3.5,2.215-5.532,5.045-5.532a4.532,4.532,0,0,1,3.151,1.343l-1.316,1.479a2.575,2.575,0,0,0-1.835-.758c-1.5,0-2.595,1.275-2.595,3.389,0,2.171,1.1,3.431,2.688,3.431a2.565,2.565,0,0,0,1.9-.932l1.316,1.446a4.363,4.363,0,0,1-3.465,1.551C2034.226,649.442,2031.959,647.587,2031.959,644.025Z" transform="translate(-674.293 744.476)" fill="#fff"/>
    <path id="Path_625" data-name="Path 625" d="M2047.641,640V618h-43v22.006l-8.449-.037,29.855,39.2,29.855-39.2Z" transform="translate(-669.224 747.381)" fill="none" stroke="#fff" stroke-linejoin="round" stroke-width="3"/>
    <ellipse id="Ellipse_79" data-name="Ellipse 79" cx="14.568" cy="14.568" rx="14.568" ry="14.568" transform="translate(1344.902 1435.494)" fill="none" stroke="#fff" stroke-miterlimit="10" stroke-width="3"/>
    <path id="Path_626" data-name="Path 626" d="M2027.875,715.392l5.309-8.809,5.313,8.815c-.324.192-.636.379-.948.564q-2.125,1.255-4.249,2.512a.187.187,0,0,1-.22.008q-2.56-1.519-5.124-3.032A1,1,0,0,1,2027.875,715.392Z" transform="translate(-673.714 734.826)" fill="#fff"/>
    <path id="Path_627" data-name="Path 627" d="M2027.941,718.084l1.88,1.109q1.614.954,3.227,1.911a.238.238,0,0,0,.284,0q2.534-1.5,5.072-3a.067.067,0,0,1,.06-.005l-5.272,7.426-5.267-7.423Z" transform="translate(-673.721 733.196)" fill="#fff"/>
    <ellipse id="Ellipse_80" data-name="Ellipse 80" cx="14.568" cy="14.568" rx="14.568" ry="14.568" transform="translate(1311.715 1416.329)" fill="none" stroke="#fff" stroke-miterlimit="10" stroke-width="3"/>
    <path id="Path_628" data-name="Path 628" d="M2000.342,693.987a2.963,2.963,0,0,0-1.477-1.381,1.933,1.933,0,0,0,.688-.719,3.221,3.221,0,0,0,.388-2.226,2.993,2.993,0,0,0-.574-1.46,4.014,4.014,0,0,0-2.486-1.559c-.13-.022-.183-.074-.178-.215.011-.374.005-.749,0-1.124s-.156-.534-.53-.535l-.4,0c-.355,0-.516.159-.517.512s0,.727,0,1.09c0,.13-.031.2-.175.182a1.923,1.923,0,0,0-.33,0c-.13.01-.173-.04-.171-.171.007-.368.005-.737,0-1.106a.444.444,0,0,0-.5-.507h-.463a.431.431,0,0,0-.478.482c0,.369-.007.738,0,1.106,0,.148-.037.2-.194.2-.666-.009-1.332,0-2,0h-1.983a.427.427,0,0,0-.481.445,4,4,0,0,0,.022.609.359.359,0,0,0,.374.363c.275.018.55.019.825.027a.627.627,0,0,1,.591.615c0,.066,0,.132,0,.2q0,4.055,0,8.111c0,.149,0,.3,0,.446a.584.584,0,0,1-.556.587c-.28.022-.56.022-.841.031a.361.361,0,0,0-.388.34c-.021.168-.016.34-.023.511-.017.429.117.569.546.569,1.3,0,2.6,0,3.9,0,.171,0,.215.05.211.215-.012.373-.006.748,0,1.123a.418.418,0,0,0,.43.445c.148.007.3,0,.445,0,.422,0,.569-.144.57-.562,0-.395,0-.79,0-1.219.178,0,.342.008.5,0,.133-.008.172.045.169.172-.006.369,0,.738,0,1.107a.444.444,0,0,0,.509.5h.379c.405,0,.554-.15.554-.561,0-.358,0-.716,0-1.074,0-.1.033-.147.143-.148a4.774,4.774,0,0,0,.575-.034,3.541,3.541,0,0,0,2.1-.969,3.923,3.923,0,0,0,1.186-3.186A2.832,2.832,0,0,0,2000.342,693.987Zm-6.709-4.472c.4.007.8,0,1.206,0,.358,0,.716.01,1.073,0a.937.937,0,0,1,.969.935c.067.718-.456,1.136-1.161,1.152s-1.388,0-2.081,0c-.119,0-.167-.038-.166-.161q0-.883,0-1.767C1993.471,689.558,1993.508,689.513,1993.633,689.515Zm3.418,6.64a1.122,1.122,0,0,1-.739.24c-.887.009-1.773,0-2.66.006-.14,0-.182-.052-.181-.185q.008-.859,0-1.718c0-.147.055-.189.2-.187.451.007.9,0,1.354,0h0c.435,0,.87-.008,1.305.005a1.434,1.434,0,0,1,.481.094.854.854,0,0,1,.573.8A1.046,1.046,0,0,1,1997.051,696.155Z" transform="translate(-668.133 737.918)" fill="#fff"/>
  </g>
</svg>
