<svg xmlns="http://www.w3.org/2000/svg" width="109.544" height="105.749" viewBox="0 0 109.544 105.749">
  <g id="Group_1658" data-name="Group 1658" transform="translate(-905.831 -1376.751)">
    <path id="Path_637" data-name="Path 637" d="M2167.316,729.787H2122.87a8.985,8.985,0,0,1-8.959-8.958V676.383a8.986,8.986,0,0,1,8.959-8.959h44.446a8.986,8.986,0,0,1,8.959,8.959v44.446" transform="translate(-1183.567 731.569)" fill="none" stroke="#fff" stroke-linecap="round" stroke-linejoin="round" stroke-width="3"/>
    <path id="Path_638" data-name="Path 638" d="M2126.164,675.888a6.1,6.1,0,1,1-3.726,3.616" transform="translate(-1183.567 731.569)" fill="none" stroke="#fff" stroke-linecap="round" stroke-linejoin="round" stroke-width="3"/>
    <path id="Path_639" data-name="Path 639" d="M2167.658,679.278a6.091,6.091,0,1,1-3.843-3.457" transform="translate(-1183.567 731.569)" fill="none" stroke="#fff" stroke-linecap="round" stroke-linejoin="round" stroke-width="3"/>
    <path id="Path_640" data-name="Path 640" d="M2125.12,710.254a6.087,6.087,0,1,1-2.906,3.868" transform="translate(-1183.567 731.569)" fill="none" stroke="#fff" stroke-linecap="round" stroke-linejoin="round" stroke-width="3"/>
    <path id="Path_641" data-name="Path 641" d="M2156.323,717.688a6.1,6.1,0,1,1,3.48,3.542" transform="translate(-1183.567 731.569)" fill="none" stroke="#fff" stroke-linecap="round" stroke-linejoin="round" stroke-width="3"/>
    <path id="Path_642" data-name="Path 642" d="M2146.286,703.737a6.094,6.094,0,1,1,3.993-4.119" transform="translate(-1183.567 731.569)" fill="none" stroke="#fff" stroke-linecap="round" stroke-linejoin="round" stroke-width="3"/>
    <path id="Path_643" data-name="Path 643" d="M2159.952,747.08a51.405,51.405,0,0,1-62.5-69.6" transform="translate(-1183.567 731.569)" fill="none" stroke="#fff" stroke-linecap="round" stroke-linejoin="round" stroke-width="3"/>
    <path id="Path_644" data-name="Path 644" d="M2125.255,650.426a51.4,51.4,0,0,1,70.663,47.63,51.763,51.763,0,0,1-.691,8.443" transform="translate(-1183.567 731.569)" fill="none" stroke="#fff" stroke-linecap="round" stroke-linejoin="round" stroke-width="3"/>
    <path id="Path_645" data-name="Path 645" d="M2099.044,673.812a51.521,51.521,0,0,1,20.881-21.067" transform="translate(-1183.567 731.569)" fill="none" stroke="#fff" stroke-linecap="round" stroke-linejoin="round" stroke-width="3" stroke-dasharray="12.057 12.057"/>
    <path id="Path_646" data-name="Path 646" d="M2194.443,711.055a51.6,51.6,0,0,1-28.821,34.06" transform="translate(-1183.567 731.569)" fill="none" stroke="#fff" stroke-linecap="round" stroke-linejoin="round" stroke-width="3" stroke-dasharray="10 10"/>
    <path id="Polygon_7" data-name="Polygon 7" d="M5,0l5,9H0Z" transform="translate(905.831 1442.289) rotate(-18)" fill="#f5f5f5"/>
    <path id="Polygon_8" data-name="Polygon 8" d="M5,0l5,9H0Z" transform="translate(1015.375 1413.283) rotate(156)" fill="#f5f5f5"/>
  </g>
</svg>
