<svg xmlns="http://www.w3.org/2000/svg" width="90.875" height="109.06" viewBox="0 0 90.875 109.06">
  <g id="Group_1656" data-name="Group 1656" transform="translate(-526.428 -1364.549)">
    <path id="Path_629" data-name="Path 629" d="M2306.5,656.667h7.559v64.192h-11.218" transform="translate(-1698.256 741.901)" fill="none" stroke="#fff" stroke-linecap="round" stroke-linejoin="round" stroke-width="3"/>
    <path id="Path_630" data-name="Path 630" d="M2250.532,666.015H2218.2a4.674,4.674,0,1,1,0-9.348h36.965" transform="translate(-1685.598 741.901)" fill="none" stroke="#fff" stroke-linecap="round" stroke-linejoin="round" stroke-width="3"/>
    <path id="Path_631" data-name="Path 631" d="M2213.526,662.113v64.192a4.675,4.675,0,0,0,4.675,4.674h71.982V666.787h-2.655" transform="translate(-1685.598 741.129)" fill="none" stroke="#fff" stroke-linecap="round" stroke-linejoin="round" stroke-width="3"/>
    <ellipse id="Ellipse_81" data-name="Ellipse 81" cx="14.568" cy="14.568" rx="14.568" ry="14.568" transform="translate(567.659 1435.494)" fill="none" stroke="#fff" stroke-miterlimit="10" stroke-width="3"/>
    <path id="Path_632" data-name="Path 632" d="M2270.6,715.392l5.31-8.809,5.313,8.815c-.324.192-.636.379-.948.564q-2.125,1.255-4.249,2.512a.187.187,0,0,1-.22.008q-2.56-1.519-5.124-3.032C2270.662,715.435,2270.639,715.416,2270.6,715.392Z" transform="translate(-1693.688 734.826)" fill="#fff"/>
    <path id="Path_633" data-name="Path 633" d="M2270.671,718.084l1.88,1.109q1.614.954,3.227,1.911a.24.24,0,0,0,.285,0q2.532-1.5,5.072-3a.065.065,0,0,1,.059-.005l-5.272,7.426-5.268-7.423Z" transform="translate(-1693.693 733.196)" fill="#fff"/>
    <ellipse id="Ellipse_82" data-name="Ellipse 82" cx="14.568" cy="14.568" rx="14.568" ry="14.568" transform="translate(534.472 1416.329)" fill="none" stroke="#fff" stroke-miterlimit="10" stroke-width="3"/>
    <path id="Path_634" data-name="Path 634" d="M2243.072,693.987a2.966,2.966,0,0,0-1.476-1.381,1.934,1.934,0,0,0,.688-.719,3.222,3.222,0,0,0,.389-2.226,3,3,0,0,0-.574-1.46,4.019,4.019,0,0,0-2.486-1.559c-.13-.022-.182-.074-.179-.215.011-.374.005-.749,0-1.124s-.156-.534-.53-.535l-.4,0c-.355,0-.516.159-.517.512s0,.727,0,1.09c0,.13-.03.2-.174.182a1.935,1.935,0,0,0-.331,0c-.13.01-.172-.04-.17-.171.007-.368,0-.737,0-1.106a.444.444,0,0,0-.5-.507h-.463a.432.432,0,0,0-.478.482c0,.369-.006.738,0,1.106,0,.148-.036.2-.193.2-.667-.009-1.333,0-2,0H2231.7a.427.427,0,0,0-.481.445,3.88,3.88,0,0,0,.022.609.359.359,0,0,0,.374.363c.273.018.549.019.825.027a.628.628,0,0,1,.591.615c0,.066,0,.132,0,.2q0,4.055,0,8.111c0,.149,0,.3,0,.446a.584.584,0,0,1-.557.587c-.279.022-.561.022-.84.031a.36.36,0,0,0-.388.34c-.021.168-.017.34-.024.511-.017.429.117.569.546.569,1.3,0,2.6,0,3.9,0,.172,0,.216.05.211.215-.012.373-.006.748,0,1.123a.417.417,0,0,0,.429.445c.148.007.3,0,.446,0,.422,0,.569-.144.569-.562,0-.395,0-.79,0-1.219.178,0,.342.008.5,0,.133-.008.171.045.168.172-.006.369,0,.738,0,1.107a.445.445,0,0,0,.509.5h.38c.405,0,.553-.15.554-.561,0-.358,0-.716,0-1.074,0-.1.033-.147.143-.148a4.781,4.781,0,0,0,.576-.034,3.539,3.539,0,0,0,2.1-.969,3.92,3.92,0,0,0,1.186-3.186A2.82,2.82,0,0,0,2243.072,693.987Zm-6.709-4.472c.4.007.8,0,1.206,0,.358,0,.716.01,1.074,0a.937.937,0,0,1,.968.935c.067.718-.456,1.136-1.161,1.152s-1.387,0-2.081,0c-.12,0-.167-.038-.167-.161q.007-.883,0-1.767C2236.2,689.558,2236.238,689.513,2236.363,689.515Zm3.419,6.64a1.122,1.122,0,0,1-.738.24c-.886.009-1.773,0-2.66.006-.14,0-.182-.052-.181-.185,0-.572.005-1.145,0-1.718,0-.147.055-.189.2-.187.451.007.9,0,1.355,0h0c.435,0,.87-.008,1.3.005a1.438,1.438,0,0,1,.481.094.852.852,0,0,1,.571.8A1.043,1.043,0,0,1,2239.781,696.155Z" transform="translate(-1688.106 737.918)" fill="#fff"/>
    <line id="Line_11" data-name="Line 11" x1="5.297" transform="translate(604.741 1417.42)" fill="none" stroke="#fff" stroke-linecap="round" stroke-miterlimit="10" stroke-width="3"/>
    <line id="Line_12" data-name="Line 12" x1="5.297" transform="translate(604.741 1425.522)" fill="none" stroke="#fff" stroke-linecap="round" stroke-miterlimit="10" stroke-width="3"/>
    <line id="Line_13" data-name="Line 13" x1="5.297" transform="translate(604.741 1433.624)" fill="none" stroke="#fff" stroke-linecap="round" stroke-miterlimit="10" stroke-width="3"/>
    <path id="Path_635" data-name="Path 635" d="M2283.081,635.39l7.757-11.245c3.57-5.175,10.079-6.877,14.538-3.8s5.18,9.765,1.609,14.94l-7.756,11.245c-3.571,5.175-10.079,6.877-14.538,3.8a8.572,8.572,0,0,1-2.307-2.365" transform="translate(-1695.357 747.266)" fill="none" stroke="#fff" stroke-linecap="round" stroke-linejoin="round" stroke-width="3"/>
    <path id="Path_636" data-name="Path 636" d="M2290.79,660.141l-7.757,11.245c-3.57,5.175-10.078,6.877-14.538,3.8s-5.179-9.765-1.609-14.94L2274.644,649c3.57-5.175,10.079-6.877,14.538-3.8a8.556,8.556,0,0,1,1.844,1.725" transform="translate(-1692.839 743.743)" fill="none" stroke="#fff" stroke-linecap="round" stroke-linejoin="round" stroke-width="3"/>
  </g>
</svg>
